<?xml version="1.0" standalone="no"?><!DOCTYPE svg PUBLIC "-//W3C//DTD SVG 1.1//EN" "http://www.w3.org/Graphics/SVG/1.1/DTD/svg11.dtd"><svg t="1599356724672" class="icon" viewBox="0 0 1024 1024" version="1.1" xmlns="http://www.w3.org/2000/svg" p-id="1624" xmlns:xlink="http://www.w3.org/1999/xlink" width="200" height="200"><defs><style type="text/css"></style></defs><path d="M847 765c17.673 0 32 14.327 32 32 0 17.673-14.327 32-32 32H167c-17.673 0-32-14.327-32-32 0-17.673 14.327-32 32-32h680z m0-284c17.673 0 32 14.327 32 32 0 17.673-14.327 32-32 32H167c-17.673 0-32-14.327-32-32 0-17.673 14.327-32 32-32h680z m0-284c17.673 0 32 14.327 32 32 0 17.673-14.327 32-32 32H167c-17.673 0-32-14.327-32-32 0-17.673 14.327-32 32-32h680z" fill="#333333" p-id="1625"></path></svg>